<svg width="159" height="183" viewBox="0 0 159 183" fill="none" xmlns="http://www.w3.org/2000/svg">
<path d="M79.5561 106.827L46.8245 125.724V163.52L79.5561 182.417L112.288 163.52V125.724L79.5561 106.827Z" stroke="#D33C44" stroke-width="0.999999"/>
<path d="M50.0977 127.614L79.5562 144.622L109.015 127.614" stroke="#D33C44" stroke-width="0.999999"/>
<path d="M79.5562 144.622V178.638" stroke="#D33C44" stroke-width="0.999999"/>
<path d="M79.5561 53.9134L46.8245 72.8111V110.606L79.5561 129.504L112.288 110.606V72.8111L79.5561 53.9134Z" stroke="#D33C44" stroke-width="0.999999"/>
<path d="M50.0977 74.7007L79.5562 91.7086L109.015 74.7007" stroke="#D33C44" stroke-width="0.999999"/>
<path d="M79.5562 91.7086V125.724" stroke="#D33C44" stroke-width="0.999999"/>
<path d="M33.7317 80.3701L1 99.2678V137.063L33.7317 155.961L66.4633 137.063V99.2678L33.7317 80.3701Z" stroke="#D33C44" stroke-width="0.999999"/>
<path d="M4.27319 101.157L33.7317 118.165L63.1902 101.157" stroke="#D33C44" stroke-width="0.999999"/>
<path d="M33.7317 118.165V152.181" stroke="#D33C44" stroke-width="0.999999"/>
<path d="M125.38 80.3701L92.6487 99.2677V137.063L125.38 155.961L158.112 137.063V99.2677L125.38 80.3701Z" stroke="#D33C44" stroke-width="0.999999"/>
<path d="M95.9219 101.157L125.38 118.165L154.839 101.157" stroke="#D33C44" stroke-width="0.999999"/>
<path d="M125.38 118.165V152.181" stroke="#D33C44" stroke-width="0.999999"/>
<path d="M79.5559 106.827L46.8242 125.724V163.52L79.5559 182.417L112.288 163.52V125.724L79.5559 106.827Z" stroke="#D33C44" stroke-width="0.999999"/>
<path d="M50.0974 127.614L79.5559 144.622L109.014 127.614" stroke="#D33C44" stroke-width="0.999999"/>
<path d="M79.5559 144.622V178.638" stroke="#D33C44" stroke-width="0.999999"/>
<path d="M79.5559 53.9135L46.8242 72.8111V110.606L79.5559 129.504L112.288 110.606V72.8111L79.5559 53.9135Z" stroke="#D33C44" stroke-width="0.999999"/>
<path d="M50.0974 74.7008L79.5559 91.7086L109.014 74.7008" stroke="#D33C44" stroke-width="0.999999"/>
<path d="M79.5559 91.7086V125.724" stroke="#D33C44" stroke-width="0.999999"/>
<path d="M33.7317 80.3701L1 99.2678V137.063L33.7317 155.961L66.4633 137.063V99.2678L33.7317 80.3701Z" stroke="#D33C44" stroke-width="0.999999"/>
<path d="M4.27319 101.157L33.7317 118.165L63.1902 101.157" stroke="#D33C44" stroke-width="0.999999"/>
<path d="M33.7317 118.165V152.181" stroke="#D33C44" stroke-width="0.999999"/>
<path d="M125.38 80.3701L92.6487 99.2678V137.063L125.38 155.961L158.112 137.063V99.2678L125.38 80.3701Z" stroke="#D33C44" stroke-width="0.999999"/>
<path d="M95.9219 101.157L125.38 118.165L154.839 101.157" stroke="#D33C44" stroke-width="0.999999"/>
<path d="M125.38 118.165V152.181" stroke="#D33C44" stroke-width="0.999999"/>
<path d="M79.5559 53.9133L46.8242 72.811V110.606L79.5559 129.504L112.288 110.606V72.811L79.5559 53.9133Z" stroke="#D33C44" stroke-width="0.999999"/>
<path d="M50.0974 74.7007L79.5559 91.7086L109.014 74.7007" stroke="#D33C44" stroke-width="0.999999"/>
<path d="M79.5559 91.7086V125.724" stroke="#D33C44" stroke-width="0.999999"/>
<path d="M79.5559 1L46.8242 19.8976V57.6929L79.5559 76.5905L112.288 57.6929V19.8976L79.5559 1Z" stroke="#D33C44" stroke-width="0.999999"/>
<path d="M50.0974 21.7874L79.5559 38.7953L109.014 21.7874" stroke="#D33C44" stroke-width="0.999999"/>
<path d="M79.5559 38.7953V72.811" stroke="#D33C44" stroke-width="0.999999"/>
<path d="M33.7317 27.4567L1 46.3544V84.1496L33.7317 103.047L66.4633 84.1496V46.3544L33.7317 27.4567Z" stroke="#D33C44" stroke-width="0.999999"/>
<path d="M4.27319 48.244L33.7317 65.2519L63.1902 48.244" stroke="#D33C44" stroke-width="0.999999"/>
<path d="M33.7317 65.252V99.2677" stroke="#D33C44" stroke-width="0.999999"/>
<path d="M125.38 27.4567L92.6487 46.3543V84.1495L125.38 103.047L158.112 84.1495V46.3543L125.38 27.4567Z" stroke="#D33C44" stroke-width="0.999999"/>
<path d="M95.9219 48.244L125.38 65.2519L154.839 48.244" stroke="#D33C44" stroke-width="0.999999"/>
<path d="M125.38 65.2519V99.2677" stroke="#D33C44" stroke-width="0.999999"/>
</svg>
